<svg width="79" height="45" viewBox="0 0 79 45" fill="none" xmlns="http://www.w3.org/2000/svg">
<g clip-path="url(#clip0_4053_513)">
<g clip-path="url(#clip1_4053_513)">
<path d="M0.0925293 12.0442H20.0925V32.0442H0.0925293V12.0442Z" fill="#F7DF1E"/>
<path d="M5.35135 28.7577L6.88189 27.8315C7.17716 28.355 7.44576 28.7979 8.09005 28.7979C8.70764 28.7979 9.097 28.5564 9.097 27.6167V21.2262H10.9765V27.6432C10.9765 29.5899 9.83541 30.476 8.17062 30.476C6.6671 30.476 5.79433 29.6973 5.35132 28.7576" fill="black"/>
<path d="M11.9973 28.5564L13.5277 27.6703C13.9305 28.3282 14.4541 28.8115 15.3804 28.8115C16.1592 28.8115 16.6558 28.4221 16.6558 27.8851C16.6558 27.2407 16.1456 27.0124 15.2864 26.6366L14.8166 26.4351C13.4606 25.8579 12.5611 25.133 12.5611 23.6025C12.5611 22.1928 13.6351 21.1188 15.3133 21.1188C16.5082 21.1188 17.3674 21.535 17.9849 22.6225L16.5215 23.5622C16.1993 22.9849 15.8503 22.7567 15.3133 22.7567C14.7629 22.7567 14.4138 23.1058 14.4138 23.5622C14.4138 24.126 14.7629 24.3543 15.5683 24.7034L16.0382 24.9048C17.6358 25.5895 18.5353 26.2875 18.5353 27.8582C18.5353 29.5499 17.2062 30.4762 15.4207 30.4762C13.6754 30.4762 12.5477 29.6439 11.9973 28.5564Z" fill="black"/>
<path d="M24.9964 27.0886C26.4684 27.0886 27.5143 26.2622 27.5143 24.5191V18.1922H26.1456V24.4933C26.1456 25.5133 25.6679 25.862 24.9319 25.862C24.2863 25.862 23.9247 25.4746 23.6148 24.9194L22.5044 25.6037C22.9176 26.4172 23.6923 27.0886 24.9964 27.0886ZM32.4338 23.7444H30.9489C29.7223 23.7573 28.8184 24.248 28.8184 25.3713C28.8184 26.585 29.6965 27.0886 30.7682 27.0886C31.5687 27.0886 32.0852 26.7787 32.4726 26.1977L32.4338 26.9724H33.738V23.7702C33.738 22.1691 32.7566 21.4331 31.4525 21.4331C30.3033 21.4331 29.6577 21.8334 29.18 22.4015L29.9289 23.1633C30.2259 22.8276 30.639 22.5177 31.3492 22.5177C32.0465 22.5177 32.4338 22.8793 32.4338 23.7444ZM32.4338 24.6482V25.0743C32.4338 25.6683 31.8915 26.0427 31.1297 26.0427C30.4583 26.0427 30.0967 25.7974 30.0967 25.3326C30.0967 24.8548 30.4712 24.6482 31.0393 24.6482H32.4338ZM37.3146 27.0886H37.4825L40.2328 21.5493H38.9028L37.8053 23.951C37.6116 24.4029 37.4567 25.126 37.4567 25.126C37.4567 25.126 37.2888 24.4029 37.0822 23.951L35.9847 21.5493H34.5385L37.3146 27.0886ZM44.3001 23.7444H42.8152C41.5885 23.7573 40.6847 24.248 40.6847 25.3713C40.6847 26.585 41.5627 27.0886 42.6344 27.0886C43.435 27.0886 43.9515 26.7787 44.3388 26.1977L44.3001 26.9724H45.6042V23.7702C45.6042 22.1691 44.6229 21.4331 43.3188 21.4331C42.1696 21.4331 41.524 21.8334 41.0462 22.4015L41.7951 23.1633C42.0921 22.8276 42.5053 22.5177 43.2155 22.5177C43.9127 22.5177 44.3001 22.8793 44.3001 23.7444ZM44.3001 24.6482V25.0743C44.3001 25.6683 43.7578 26.0427 42.996 26.0427C42.3245 26.0427 41.963 25.7974 41.963 25.3326C41.963 24.8548 42.3374 24.6482 42.9056 24.6482H44.3001ZM49.8136 27.0886C51.4663 27.0886 52.6671 26.1977 52.6671 24.6611C52.6671 23.2537 51.8666 22.5565 50.3688 21.8979L49.8006 21.6397C48.9097 21.2523 48.5353 20.9554 48.5353 20.2968C48.5353 19.7029 48.9743 19.2768 49.6715 19.2768C50.3559 19.2768 50.7432 19.5479 51.079 20.129L52.1507 19.4705C51.6213 18.5279 50.8336 18.0889 49.6715 18.0889C48.2125 18.0889 47.2053 19.0185 47.2053 20.3227C47.2053 21.6784 47.98 22.324 49.2583 22.8922L49.8394 23.1504C50.7949 23.5765 51.3114 23.9122 51.3114 24.6741C51.3114 25.3971 50.6787 25.8749 49.7877 25.8749C48.716 25.8749 48.1866 25.3326 47.7734 24.6482L46.6501 25.268C47.1408 26.2622 48.1479 27.0886 49.8136 27.0886ZM56.7087 27.0886C57.7545 27.0886 58.4001 26.7142 58.9295 26.1073L58.0386 25.3326C57.7416 25.6683 57.3543 25.9394 56.7087 25.9394C55.7402 25.9394 55.1592 25.2293 55.1592 24.2609C55.1592 23.2925 55.7402 22.5823 56.7087 22.5823C57.2639 22.5823 57.7158 22.8405 57.974 23.215L58.9037 22.4661C58.3872 21.8205 57.7287 21.4331 56.7087 21.4331C55.0559 21.4331 53.8163 22.6468 53.8163 24.2609C53.8163 25.8878 55.0559 27.0886 56.7087 27.0886ZM60.1691 26.9724H61.4732V24.3383C61.4732 23.1246 62.0026 22.6727 62.7774 22.6727C63.0743 22.6727 63.2809 22.7501 63.4875 22.8534L63.9265 21.6784C63.6941 21.5364 63.423 21.446 63.0356 21.446C62.4416 21.446 61.8219 21.7172 61.4603 22.5694L61.4732 21.5493H60.1691V26.9724ZM65.6826 20.3098C66.1474 20.3098 66.5477 19.9611 66.5477 19.4446C66.5477 18.954 66.1474 18.5924 65.6826 18.5924C65.2177 18.5924 64.8175 18.954 64.8175 19.4446C64.8175 19.9611 65.2177 20.3098 65.6826 20.3098ZM65.0241 26.9724H66.3411V21.5493H65.0241V26.9724ZM68.0326 29.7098H69.3496V26.0427C69.6595 26.6496 70.3051 27.0886 71.209 27.0886C72.6164 27.0886 73.7527 25.8878 73.7527 24.248C73.7527 22.6081 72.6293 21.4331 71.2348 21.4331C70.3051 21.4331 69.6595 21.885 69.3109 22.5565L69.3496 21.5493H68.0326L68.0326 29.7098ZM70.8733 25.9394C69.9178 25.9394 69.298 25.268 69.298 24.248C69.298 23.2666 69.9178 22.5952 70.8733 22.5952C71.8158 22.5952 72.4098 23.2666 72.4098 24.248C72.4098 25.268 71.8158 25.9394 70.8733 25.9394ZM77.1486 27.1015C77.8458 27.1015 78.2719 26.8433 78.5431 26.585L77.9233 25.707C77.7812 25.8232 77.5876 25.9653 77.2777 25.9653C76.942 25.9653 76.7354 25.7845 76.7354 25.1647V22.6468H78.1815V21.5493H76.7354V18.7216H75.4312V21.5493H74.6178V22.6468H75.4312V25.1389C75.4312 26.585 76.1285 27.1015 77.1486 27.1015Z" fill="#04233E"/>
</g>
</g>
<defs>
<clipPath id="clip0_4053_513">
<rect width="79" height="45" fill="white"/>
</clipPath>
<clipPath id="clip1_4053_513">
<rect width="80" height="20" fill="white" transform="translate(0 12)"/>
</clipPath>
</defs>
</svg>
