<svg width="27" height="45" viewBox="0 0 27 45" fill="none" xmlns="http://www.w3.org/2000/svg">
<g clip-path="url(#clip0_4062_857)">
<path d="M17.509 30.46C22.376 30.46 26.3215 26.6723 26.3215 22C26.3215 17.3277 22.376 13.54 17.509 13.54C12.642 13.54 8.69653 17.3277 8.69653 22C8.69653 26.6723 12.642 30.46 17.509 30.46Z" fill="#FFDE2D"/>
<path d="M8.69665 30.46C13.5636 30.46 17.5091 26.6723 17.5091 22C17.5091 17.3277 13.5636 13.54 8.69665 13.54C3.82964 13.54 -0.115845 17.3277 -0.115845 22C-0.115845 26.6723 3.82964 30.46 8.69665 30.46Z" fill="#327EFF"/>
<path d="M17.5091 22C17.5091 26.6724 13.5636 30.4599 8.69653 30.4599V22H17.5091ZM8.69653 22C8.69653 17.3277 12.642 13.54 17.5091 13.54V22H8.69653Z" fill="#FF6446"/>
</g>
<defs>
<clipPath id="clip0_4062_857">
<rect width="27" height="18" fill="white" transform="translate(0 13)"/>
</clipPath>
</defs>
</svg>
